<svg height='300px' width='300px'  fill="#000000" xmlns="http://www.w3.org/2000/svg" xmlns:xlink="http://www.w3.org/1999/xlink" xml:space="preserve" version="1.1" style="shape-rendering:geometricPrecision;text-rendering:geometricPrecision;image-rendering:optimizeQuality;" viewBox="0 0 846.66 846.66" x="0px" y="0px" fill-rule="evenodd" clip-rule="evenodd"><defs><style type="text/css">
   
    .fil0 {fill:#000000;fill-rule:nonzero}
   
  </style></defs><g><path class="fil0" d="M477.24 139.58c38.62,7.31 76.01,22.78 108.45,44.92l72.12 -20.7c10.75,-3.05 22,3.2 25.04,13.96 1.06,3.76 1,7.57 0,11.08l-20.72 72.12c22.22,32.66 37.55,69.52 44.9,108.35l65.58 36.34c14.51,8.05 13.48,29.04 -1.16,35.96l-64.38 35.63c-7.41,39.15 -22.49,75.57 -44.94,108.45l20.72 72.12c3.05,10.75 -3.2,22 -13.96,25.04 -3.76,1.06 -7.57,1 -11.08,0l-72.12 -20.72c-32.74,22.29 -69.54,37.53 -108.45,44.94l-36.24 65.46c-7.79,14.17 -28.13,13.7 -35.5,-0.26l-36.09 -65.2c-38.77,-7.33 -75.87,-22.69 -108.45,-44.94l-72.12 20.72c-15.42,4.37 -29.31,-10 -25.04,-25.04l20.72 -72.12c-22.29,-32.74 -37.53,-69.54 -44.94,-108.45l-65.46 -36.24c-14.17,-7.79 -13.7,-28.13 0.26,-35.5l65.2 -36.09c7.33,-38.76 22.69,-75.87 44.94,-108.45l-20.72 -72.12c-4.37,-15.42 10,-29.31 25.04,-25.04l72.12 20.72c32.74,-22.29 69.54,-37.53 108.45,-44.94l36.23 -65.46c7.8,-14.17 28.14,-13.7 35.51,0.26l36.09 65.2zm-165.72 234.91c-11.18,19.34 -4.52,44.09 14.8,55.23 19.32,11.16 72.69,9.46 78.84,-1.16 6.13,-10.63 -19.1,-57.68 -38.43,-68.85 -19.32,-11.14 -44.06,-4.55 -55.21,14.78zm223.63 0.04c-11.17,-19.34 -35.91,-25.96 -55.24,-14.8 -19.32,11.15 -44.53,58.22 -38.4,68.85 6.13,10.64 59.51,12.3 78.84,1.16 19.32,-11.16 25.96,-35.89 14.8,-55.21zm-194.82 158.32c15.79,15.79 41.38,15.79 57.18,0 15.77,-15.77 27.95,-67.77 19.26,-76.44 -8.67,-8.69 -60.65,3.51 -76.42,19.28 -15.8,15.78 -15.82,41.39 -0.02,57.16zm166.01 0c15.79,-15.79 15.77,-41.41 0,-57.18 -15.79,-15.77 -67.79,-27.95 -76.46,-19.28 -8.69,8.69 3.51,60.67 19.28,76.44 15.8,15.77 41.39,15.79 57.18,0.02zm-83 -246.58c-22.34,0 -40.43,18.11 -40.43,40.44 0,22.3 28.15,67.69 40.43,67.69 12.26,0 40.4,-45.39 40.4,-67.69 0,-22.33 -18.09,-40.44 -40.4,-40.44zm-0.02 -61.13c109.45,0 198.19,88.74 198.19,198.19 0,109.44 -88.74,198.18 -198.19,198.18 -109.44,0 -198.18,-88.74 -198.18,-198.18 0,-109.45 88.74,-198.19 198.18,-198.19zm0 40.59c-87.03,0 -157.59,70.56 -157.59,157.6 0,87.03 70.56,157.59 157.59,157.59 87.04,0 157.6,-70.56 157.6,-157.59 0,-87.04 -70.56,-157.6 -157.6,-157.6zm23.33 -98.04l-23.33 -42.13 -22.42 40.51c-2.7,6.17 -8.43,10.88 -15.57,11.94 -39.18,5.98 -76.18,21.27 -108.17,44.67 -4.93,3.82 -11.55,5.34 -18,3.51l-46.26 -13.29 13.09 45.59c1.89,6.23 0.95,12.84 -2.96,18.18 -23.43,31.91 -38.73,68.61 -44.86,107.66 -0.75,6.34 -4.71,12.51 -10.48,15.67l-42.14 23.33 40.52 22.42c6.17,2.7 10.88,8.43 11.93,15.57 5.99,39.18 21.28,76.18 44.68,108.17 3.82,4.93 5.34,11.55 3.51,18l-13.29 46.26 46.26 -13.27c5.8,-1.63 12.28,-0.69 17.51,3.14 31.55,23.16 67.74,38.41 106.32,44.66 7.21,1.18 13.09,3.57 17.01,10.68l23.32 42.13 22.43 -40.51c2.7,-6.17 8.43,-10.88 15.57,-11.93 39.18,-5.99 76.18,-21.28 108.17,-44.68 4.93,-3.82 11.55,-5.34 18,-3.51l46.26 13.29 -12.72 -44.31c-2.01,-6.92 -1.99,-13.21 2.59,-19.46 23.39,-31.85 38.69,-68.45 44.84,-107.44 1.06,-6.66 4.22,-12.44 10.5,-15.89l42.11 -23.3 -40.88 -22.66c-5.98,-2.78 -10.51,-8.4 -11.55,-15.4 -6.02,-39.26 -21.25,-76.06 -44.67,-108.13 -3.82,-4.93 -5.34,-11.55 -3.51,-18l13.29 -46.26 -46.26 13.25c-5.8,1.63 -12.28,0.69 -17.51,-3.14 -31.53,-23.1 -67.66,-38.35 -106.18,-44.62 -7.23,-1.07 -13.26,-3.63 -17.15,-10.7z"></path></g></svg>